<?xml version="1.0" encoding="UTF-8" standalone="no"?>
<svg
   xmlns:dc="http://purl.org/dc/elements/1.1/"
   xmlns:cc="http://creativecommons.org/ns#"
   xmlns:rdf="http://www.w3.org/1999/02/22-rdf-syntax-ns#"
   xmlns:svg="http://www.w3.org/2000/svg"
   xmlns="http://www.w3.org/2000/svg"
   id="svg8"
   version="1.1"
   viewBox="0 0 16 16.000001"
   height="16"
   width="16">
  <defs
     id="defs2" />
  <metadata
     id="metadata5">
    <rdf:RDF>
      <cc:Work
         rdf:about="">
        <dc:format>image/svg+xml</dc:format>
        <dc:type
           rdf:resource="http://purl.org/dc/dcmitype/StillImage" />
        <dc:title></dc:title>
      </cc:Work>
    </rdf:RDF>
  </metadata>
  <g
     transform="translate(0,-1106.5197)"
     id="layer1">
    <path
       id="rect846"
       transform="translate(0,1106.5197)"
       d="M 2 0 C 0.90927134 0 0 0.9093 0 2 L 0 14 C 0 15.0908 0.90927134 16 2 16 L 14 16 C 15.090729 16 16 15.0908 16 14 L 16 2 C 16 0.9093 15.090729 0 14 0 L 2 0 z M 2 2 L 8 2 L 8 4 L 12 4 C 12.554026 4 13 4.446 13 5 L 13 8 L 13 9 C 13 9.554 12.554026 10 12 10 L 8 10 L 8 11 L 12 11 L 12 12 L 8 12 L 8 14 L 2 14 L 2 2 z M 8 5 L 8 6 L 10 6 L 10 7 L 8 7 L 8 9 L 12 9 L 12 8 L 12 5 L 8 5 z "
       style="color:#000000;font-style:normal;font-variant:normal;font-weight:normal;font-stretch:normal;font-size:medium;line-height:normal;font-family:sans-serif;font-variant-ligatures:normal;font-variant-position:normal;font-variant-caps:normal;font-variant-numeric:normal;font-variant-alternates:normal;font-feature-settings:normal;text-indent:0;text-align:start;text-decoration:none;text-decoration-line:none;text-decoration-style:solid;text-decoration-color:#000000;letter-spacing:normal;word-spacing:normal;text-transform:none;writing-mode:lr-tb;direction:ltr;text-orientation:mixed;dominant-baseline:auto;baseline-shift:baseline;text-anchor:start;white-space:normal;shape-padding:0;clip-rule:nonzero;display:inline;overflow:visible;visibility:visible;opacity:1;isolation:auto;mix-blend-mode:normal;color-interpolation:sRGB;color-interpolation-filters:linearRGB;solid-color:#000000;solid-opacity:1;vector-effect:none;fill:#000000;fill-opacity:1;fill-rule:evenodd;stroke:none;stroke-width:2;stroke-linecap:round;stroke-linejoin:round;stroke-miterlimit:4;stroke-dasharray:none;stroke-dashoffset:10;stroke-opacity:1;color-rendering:auto;image-rendering:auto;shape-rendering:auto;text-rendering:auto;enable-background:accumulate" />
    <path
       id="rect974"
       transform="translate(0,1106.5197)"
       d="M 4 4 C 3.4459741 4 3 4.446 3 5 L 3 11 C 3 11.554 3.4459741 12 4 12 L 8 12 L 8 11 L 4 11 L 4 5 L 8 5 L 8 4 L 4 4 z M 6 6 C 5.4459741 6 5 6.446 5 7 L 5 9 C 5 9.554 5.4459741 10 6 10 L 8 10 L 8 9 L 6 9 L 6 7 L 8 7 L 8 6 L 6 6 z "
       style="opacity:1;fill:#000000;fill-opacity:1;fill-rule:evenodd;stroke:none;stroke-width:2;stroke-linecap:round;stroke-linejoin:round;stroke-miterlimit:4;stroke-dasharray:none;stroke-dashoffset:10;stroke-opacity:1" />
  </g>
</svg>
